<?xml version="1.0" encoding="utf-8"?>
<!-- Generator: Adobe Illustrator 23.0.6, SVG Export Plug-In . SVG Version: 6.00 Build 0)  -->
<svg version="1.1" id="Слой_1" xmlns="http://www.w3.org/2000/svg" x="0px"
     y="0px"
     viewBox="0 0 21 22" style="enable-background:new 0 0 21 22;" xml:space="preserve">
<style type="text/css">
	.st0{fill:none;stroke:#C3D0E7;stroke-width:2;}
	.st1{fill:#C3D0E7;}
</style>
  <path class="st0" d="M5,21V2 M1,6l4-4l4,4"/>
  <path class="st1" d="M18.8,10l-0.5-2.2h-2.2L15.6,10H14l2.1-8.6h2.2l2.1,8.6H18.8z M18,6.4l-0.5-2c0-0.1-0.1-0.4-0.2-0.9
	c-0.1-0.5-0.2-0.8-0.2-1c-0.1,0.3-0.1,0.7-0.2,1.1c-0.1,0.4-0.3,1.3-0.6,2.8H18z M17.1,17.7L15.7,21H14l1.6-3.7
	c-0.4-0.2-0.7-0.5-0.8-0.9c-0.2-0.4-0.3-0.8-0.3-1.3c0-1.8,0.9-2.6,2.6-2.6h2.1V21h-1.6v-3.3H17.1z M17.7,13.8h-0.4
	c-0.4,0-0.6,0.1-0.8,0.3c-0.2,0.2-0.3,0.5-0.3,0.9c0,0.4,0.1,0.7,0.2,1c0.2,0.2,0.4,0.3,0.8,0.3h0.4V13.8z"/>
</svg>
