<svg width="24" height="22" viewBox="0 0 24 22" fill="none" xmlns="http://www.w3.org/2000/svg">
  <path fill-rule="evenodd" clip-rule="evenodd"
        d="M11.134 2.5C11.2217 2.34798 11.348 2.22174 11.5 2.13397C11.652 2.04621 11.8245 2 12 2C12.1755 2 12.348 2.04621 12.5 2.13397C12.652 2.22174 12.7783 2.34798 12.866 2.5C12.9538 2.65202 13 2.82446 13 3C13 3.17554 12.9538 3.34798 12.866 3.5C12.7783 3.65202 12.652 3.77826 12.5 3.86603C12.348 3.95379 12.1755 4 12 4H6V6H12C12.5266 6 13.0439 5.86138 13.5 5.59808C13.9561 5.33477 14.3348 4.95606 14.5981 4.5C14.8614 4.04394 15 3.52661 15 3C15 2.47339 14.8614 1.95606 14.5981 1.5C14.3348 1.04394 13.9561 0.665229 13.5 0.401924C13.0439 0.138619 12.5266 2.30175e-08 12 0C11.4734 3.65835e-08 10.9561 0.138619 10.5 0.401924C10.0439 0.665229 9.66523 1.04394 9.40192 1.5L11.134 2.5ZM3 10H7V8H3V10ZM9 8V10H18C18.5694 10 19.1322 9.87844 19.6508 9.64345C20.1695 9.40847 20.6319 9.06547 21.0074 8.63738C21.3828 8.2093 21.6625 7.706 21.8278 7.16114C21.993 6.61628 22.0401 6.0424 21.9658 5.4779C21.8915 4.91339 21.6975 4.37125 21.3968 3.88773C21.0961 3.40421 20.6957 2.99045 20.2223 2.67412C19.7489 2.35779 19.2134 2.14618 18.6516 2.05343C18.0898 1.96068 17.5147 1.98893 16.9647 2.1363L17.4824 4.06815C17.7574 3.99447 18.0449 3.98034 18.3258 4.02671C18.6067 4.07309 18.8744 4.1789 19.1111 4.33706C19.3479 4.49523 19.5481 4.70211 19.6984 4.94386C19.8487 5.18562 19.9457 5.45669 19.9829 5.73895C20.0201 6.0212 19.9965 6.30814 19.9139 6.58057C19.8312 6.853 19.6914 7.10465 19.5037 7.31869C19.316 7.53273 19.0847 7.70423 18.8254 7.82173C18.5661 7.93922 18.2847 8 18 8H9ZM14 14H6V12H14V14ZM16 14V12H20V11.9999C20.7021 11.9999 21.3919 12.1848 22 12.5358C22.6081 12.8869 23.113 13.3919 23.4641 13.9999C23.8152 14.608 24 15.2978 24 15.9999C24 16.7021 23.8152 17.3919 23.4641 17.9999C23.113 18.608 22.6081 19.113 22 19.4641C21.3919 19.8151 20.7021 19.9999 20 19.9999C19.2979 19.9999 18.6081 19.8151 18 19.4641C17.3919 19.113 16.887 18.608 16.5359 17.9999L18.2679 16.9999C18.4435 17.304 18.696 17.5565 19 17.732C19.304 17.9075 19.6489 17.9999 20 17.9999C20.3511 17.9999 20.696 17.9075 21 17.732C21.304 17.5565 21.5565 17.304 21.7321 16.9999C21.9076 16.6959 22 16.351 22 15.9999C22 15.6489 21.9076 15.304 21.7321 14.9999C21.5565 14.6959 21.304 14.4434 21 14.2679C20.696 14.0924 20.3511 13.9999 20 13.9999V14H16ZM0 18H11V17.9999C11.1423 17.9999 11.283 18.0303 11.4127 18.0891C11.5424 18.1478 11.658 18.2336 11.7518 18.3406C11.8457 18.4476 11.9156 18.5734 11.9569 18.7097C11.9983 18.8459 12.01 18.9893 11.9914 19.1305C11.9729 19.2716 11.9244 19.4071 11.8492 19.528C11.774 19.6489 11.6739 19.7523 11.5556 19.8314C11.4372 19.9105 11.3033 19.9634 11.1629 19.9866C11.0225 20.0098 10.8787 20.0027 10.7412 19.9659L10.2235 21.8977C10.636 22.0083 11.0674 22.0294 11.4887 21.9599C11.91 21.8903 12.3116 21.7316 12.6667 21.4944C13.0218 21.2571 13.3221 20.9468 13.5476 20.5842C13.7731 20.2215 13.9186 19.8149 13.9743 19.3915C14.0301 18.9681 13.9948 18.5377 13.8708 18.1291C13.7469 17.7204 13.5371 17.343 13.2555 17.0219C12.974 16.7008 12.6271 16.4436 12.2381 16.2674C11.8491 16.0911 11.427 15.9999 11 15.9999V16H0V18Z"
        fill="#C3D0E7"/>
</svg>
