<svg width="25" height="24" viewBox="0 0 25 24" fill="none" xmlns="http://www.w3.org/2000/svg">
  <path fill-rule="evenodd" clip-rule="evenodd"
        d="M5.04781 19.9507C2.31414 17.2171 2.31414 12.7849 5.04781 10.0512L7.52268 7.57636L6.10847 6.16214L3.6336 8.63702C0.118879 12.1517 0.118879 17.8502 3.6336 21.3649C4.41811 22.1494 5.31329 22.7601 6.26989 23.1951L7.09782 21.3745C6.35611 21.0372 5.66027 20.5632 5.04781 19.9507ZM9.39193 5.70711L12.3919 2.70711L10.9777 1.29289L7.97772 4.29289L9.39193 5.70711ZM11.7044 9.05146L15.3541 5.40183L13.9398 3.98762L10.2902 7.63725L11.7044 9.05146ZM16.3615 4.39438L18.5488 2.20711L17.1346 0.792894L14.9473 2.98016L16.3615 4.39438ZM16.3615 10.0512L24.9985 1.41421L23.5843 0L14.9473 8.63702L16.3615 10.0512ZM17.7044 14.3652L23.7044 8.36517L22.2902 6.95096L16.2902 12.951L17.7044 14.3652ZM14.9473 19.9507C13.5106 21.3874 11.6066 22.0691 9.72282 21.9956L9.64488 23.9941C12.0624 24.0884 14.5144 23.2121 16.3615 21.3649L23.0194 14.7071L21.6051 13.2929L14.9473 19.9507Z"
        fill="#C3D0E7"/>
  <path fill-rule="evenodd" clip-rule="evenodd"
        d="M8.80429 10.1143L9.23269 10.4265C9.72774 10.7872 10.3361 10.9998 10.9971 10.9998C11.3551 10.9998 11.6964 10.9375 12.0121 10.824L12.5109 10.6447L12.9393 10.9569C13.3611 11.2642 13.7327 11.6359 14.04 12.0576L14.3522 12.4859L14.173 12.9847C14.0595 13.3004 13.9973 13.6416 13.9973 13.9995C13.9973 14.6605 14.2099 15.2689 14.5706 15.7639L14.8828 16.1923L14.7035 16.6911C14.0108 18.6188 12.1665 19.9999 9.99707 19.9999C7.23565 19.9999 4.99707 17.7613 4.99707 14.9999C4.99707 12.8306 6.37795 10.9865 8.30546 10.2936L8.80429 10.1143ZM8.55917 12.366C7.62742 12.8758 6.99707 13.8652 6.99707 14.9999C6.99707 16.6567 8.34022 17.9999 9.99707 17.9999C11.1319 17.9999 12.1214 17.3694 12.6311 16.4375C12.2275 15.7159 11.9973 14.8836 11.9973 13.9995C11.9973 13.6165 12.0405 13.2426 12.1227 12.8828C12.1198 12.88 12.117 12.8772 12.1141 12.8743C11.7543 12.9565 11.3803 12.9998 10.9971 12.9998C10.113 12.9998 9.2808 12.7696 8.55917 12.366Z"
        fill="#FFA115"/>
</svg>
