<svg width="25" height="24" viewBox="0 0 25 24" fill="none" xmlns="http://www.w3.org/2000/svg">
  <path fill-rule="evenodd" clip-rule="evenodd"
        d="M6.41602 0.915635C8.64038 0.25545 11.3422 0 13.3847 0C15.4329 0 17.8924 0.256598 19.9977 0.92052C22.0342 1.56272 24.0728 2.69408 24.73 4.68377C25.5221 7.08156 24.523 9.73698 22.1644 11.6952C19.8009 13.6576 16.0216 15 10.9073 15H10.8936C10.1414 15 7.94804 15.0001 5.91995 14.5379C4.90494 14.3067 3.84106 13.9407 3.0099 13.3334C2.14685 12.7027 1.49304 11.7718 1.49304 10.5C1.49304 9.61403 1.85435 8.88013 2.39364 8.30971L3.82765 9.69029C3.58048 9.95172 3.47499 10.2092 3.47499 10.5C3.47499 10.9782 3.68828 11.3598 4.17233 11.7135C4.68827 12.0905 5.45149 12.3808 6.35649 12.5871C8.156 12.9971 10.1598 13 10.9073 13C15.7026 13 18.9914 11.7397 20.9052 10.1508C22.8239 8.55776 23.3112 6.71317 22.8498 5.31623C22.516 4.30592 21.334 3.43728 19.4066 2.82948C17.548 2.2434 15.3003 2 13.3847 2C11.4633 2 8.96253 2.24455 6.97526 2.83437C5.97656 3.13078 5.17907 3.49389 4.65121 3.90268C4.1356 4.30199 3.97047 4.66374 3.97047 5C3.97047 5.19506 4.1863 5.92836 5.65236 6.66807C7.07627 7.38651 9.50874 8 13.3847 8C16.4697 8 18.2745 7.51084 19.2691 6.98809C20.2185 6.4891 20.3124 6.04201 20.3207 6.00209C20.3213 5.99917 20.3215 5.99843 20.3215 6H22.3034C22.3034 7.0231 21.5442 8.04738 20.1847 8.76191C18.801 9.48915 16.6419 10 13.3847 10C9.33289 10 6.56276 9.36349 4.76601 8.45693C3.01142 7.57164 1.98853 6.30494 1.98853 5C1.98853 3.83626 2.62857 2.94801 3.44457 2.31607C4.24833 1.69361 5.30891 1.24422 6.41602 0.915635ZM0.997559 15.5C0.997559 14.882 1.1948 14.3418 1.5283 13.8968L3.10905 15.1032C3.02517 15.2151 2.9795 15.3351 2.9795 15.5C2.9795 15.7285 3.06921 15.9228 3.3603 16.136C3.68301 16.3724 4.18325 16.5688 4.80945 16.7124C6.05128 16.9972 7.43585 17 7.93436 17C11.6427 17 14.1686 16.2038 15.7533 15.1621L16.8351 16.8379C14.8392 18.1499 11.9042 19 7.93436 19H7.92228C7.41639 19 5.84164 19.0001 4.37021 18.6626C3.63382 18.4937 2.83341 18.2214 2.19612 17.7546C1.52721 17.2647 0.997559 16.5215 0.997559 15.5ZM17.0583 19.7071C14.826 21.9598 12.0891 22.5 9.9163 22.5H9.88443C8.89794 22.5001 7.27858 22.5002 5.63904 21.9487L6.26579 20.0513C7.58139 20.4938 8.9176 20.5 9.9163 20.5C11.7795 20.5 13.9253 20.0402 15.6569 18.2929L17.0583 19.7071ZM14.8805 24H14.8712V22C15.3285 22 16.3304 21.9884 17.0195 20.9453L18.6686 22.0547C17.3832 24.0003 15.4275 24.0001 14.8805 24Z"
        fill="#C3D0E7"/>
</svg>
