<svg width="24" height="24" viewBox="0 0 24 24" fill="none" xmlns="http://www.w3.org/2000/svg">
  <path fill-rule="evenodd" clip-rule="evenodd"
        d="M11 0V4H13V0H11ZM11 20V24H13V20H11ZM12 9C10.3431 9 9 10.3431 9 12C9 13.6569 10.3431 15 12 15C13.6569 15 15 13.6569 15 12C15 10.3431 13.6569 9 12 9ZM7 12C7 9.23858 9.23858 7 12 7C14.7614 7 17 9.23858 17 12C17 14.7614 14.7614 17 12 17C9.23858 17 7 14.7614 7 12ZM4 13H0V11H4V13ZM24 13H20V11H24V13ZM2.80754 4.22176L4.22176 2.80754L7.05018 5.63597L5.63597 7.05018L2.80754 4.22176ZM19.7781 21.1923L16.9497 18.3639L18.3639 16.9497L21.1923 19.7781L19.7781 21.1923ZM19.7782 2.80754L16.9498 5.63597L18.364 7.05018L21.1925 4.22176L19.7782 2.80754ZM5.63611 16.9497L2.80768 19.7781L4.22189 21.1923L7.05032 18.3639L5.63611 16.9497Z"
        fill="#FFA215"/>
</svg>
