<svg width="24" height="24" viewBox="0 0 24 24" fill="none" xmlns="http://www.w3.org/2000/svg">
  <path fill-rule="evenodd" clip-rule="evenodd"
        d="M4.87196 0.510423L4 1L3.12804 0.510423C3.30505 0.195162 3.63845 0 4 0C4.36155 0 4.69495 0.195162 4.87196 0.510423ZM4 1C3.12804 0.510423 3.128 0.5105 3.12794 0.510597L3.12778 0.510893L3.12724 0.511851L3.12535 0.515217L3.11839 0.527657L3.09221 0.574656C3.06949 0.615541 3.03647 0.675185 2.99462 0.751376C2.91093 0.903724 2.79183 1.12244 2.6491 1.38979C2.36401 1.92379 1.98282 2.65526 1.60063 3.4415C1.21986 4.22482 0.830929 5.07712 0.534968 5.84942C0.25713 6.57443 0 7.37851 0 8C0 10.2091 1.79086 12 4 12C6.20914 12 8 10.2091 8 8C8 7.37851 7.74287 6.57443 7.46503 5.84942C7.16907 5.07712 6.78014 4.22482 6.39937 3.4415C6.01718 2.65526 5.63599 1.92379 5.3509 1.38979C5.20817 1.12244 5.08907 0.903724 5.00538 0.751376C4.96353 0.675185 4.93051 0.615541 4.90779 0.574656L4.88161 0.527657L4.87465 0.515217L4.87276 0.511851L4.87222 0.510893L4.87206 0.510597C4.872 0.5105 4.87196 0.510423 4 1ZM4 3.11896C3.81018 3.48658 3.60462 3.89363 3.39937 4.31586C3.03014 5.07544 2.66907 5.86958 2.40253 6.56511C2.11787 7.30793 2 7.79306 2 8C2 9.10457 2.89543 10 4 10C5.10457 10 6 9.10457 6 8C6 7.79306 5.88213 7.30793 5.59747 6.56511C5.33093 5.86958 4.96986 5.07544 4.60063 4.31586C4.39538 3.89363 4.18982 3.48658 4 3.11896ZM11.872 12.5104L11 13L10.128 12.5104C10.305 12.1952 10.6384 12 11 12C11.3616 12 11.695 12.1952 11.872 12.5104ZM11 13C10.128 12.5104 10.128 12.5105 10.1279 12.5106L10.1278 12.5109L10.1272 12.5119L10.1254 12.5152L10.1184 12.5277L10.0922 12.5747C10.0695 12.6155 10.0365 12.6752 9.99462 12.7514C9.91093 12.9037 9.79183 13.1224 9.6491 13.3898C9.36401 13.9238 8.98282 14.6553 8.60063 15.4415C8.21986 16.2248 7.83093 17.0771 7.53497 17.8494C7.25713 18.5744 7 19.3785 7 20C7 22.2091 8.79086 24 11 24C13.2091 24 15 22.2091 15 20C15 19.3785 14.7429 18.5744 14.465 17.8494C14.1691 17.0771 13.7801 16.2248 13.3994 15.4415C13.0172 14.6553 12.636 13.9238 12.3509 13.3898C12.2082 13.1224 12.0891 12.9037 12.0054 12.7514C11.9635 12.6752 11.9305 12.6155 11.9078 12.5747L11.8816 12.5277L11.8746 12.5152L11.8728 12.5119L11.8722 12.5109L11.8721 12.5106C11.872 12.5105 11.872 12.5104 11 13ZM11 15.119C10.8102 15.4866 10.6046 15.8936 10.3994 16.3159C10.0301 17.0754 9.66907 17.8696 9.40253 18.5651C9.11787 19.3079 9 19.7931 9 20C9 21.1046 9.89543 22 11 22C12.1046 22 13 21.1046 13 20C13 19.7931 12.8821 19.3079 12.5975 18.5651C12.3309 17.8696 11.9699 17.0754 11.6006 16.3159C11.3954 15.8936 11.1898 15.4866 11 15.119ZM19.128 5.51042L20 6C19.128 5.51042 19.128 5.5105 19.1279 5.5106L19.1278 5.51089L19.1272 5.51185L19.1254 5.51522L19.1184 5.52766L19.0922 5.57466C19.0695 5.61554 19.0365 5.67519 18.9946 5.75138C18.9109 5.90372 18.7918 6.12244 18.6491 6.38979C18.364 6.92379 17.9828 7.65526 17.6006 8.44149C17.2199 9.22482 16.8309 10.0771 16.535 10.8494C16.2571 11.5744 16 12.3785 16 13C16 15.2091 17.7909 17 20 17C22.2091 17 24 15.2091 24 13C24 12.3785 23.7429 11.5744 23.465 10.8494C23.1691 10.0771 22.7801 9.22482 22.3994 8.44149C22.0172 7.65526 21.636 6.92379 21.3509 6.38979C21.2082 6.12244 21.0891 5.90372 21.0054 5.75138C20.9635 5.67519 20.9305 5.61554 20.9078 5.57466L20.8816 5.52766L20.8746 5.51522L20.8728 5.51185L20.8722 5.51089L20.8721 5.5106C20.872 5.5105 20.872 5.51042 20 6L20.872 5.51042C20.695 5.19516 20.3616 5 20 5C19.6384 5 19.305 5.19516 19.128 5.51042ZM19.3994 9.31586C19.6046 8.89363 19.8102 8.48658 20 8.11896C20.1898 8.48658 20.3954 8.89363 20.6006 9.31586C20.9699 10.0754 21.3309 10.8696 21.5975 11.5651C21.8821 12.3079 22 12.7931 22 13C22 14.1046 21.1046 15 20 15C18.8954 15 18 14.1046 18 13C18 12.7931 18.1179 12.3079 18.4025 11.5651C18.6691 10.8696 19.0301 10.0754 19.3994 9.31586Z"
        fill="#73BCFE"/>
</svg>
