<svg width="24" height="24" viewBox="0 0 24 24" fill="none" xmlns="http://www.w3.org/2000/svg">
  <path fill-rule="evenodd" clip-rule="evenodd"
        d="M12 2C9.80671 2 7.94082 3.41281 7.26767 5.38093L7.07544 5.94298L6.48991 6.04303C5.07616 6.28459 4 7.51762 4 9C4 9.74737 4.35535 10.5011 4.94954 11.0828C5.54666 11.6673 6.30555 12 7 12V14C5.69445 14 4.45334 13.3959 3.55046 12.512C2.64465 11.6253 2 10.379 2 9C2 6.73102 3.51052 4.81652 5.58077 4.20455C6.6595 1.73089 9.12648 0 12 0C13.9512 0 15.7165 0.799314 16.9849 2.08568C17.3153 2.0293 17.6546 2 18 2C21.3137 2 24 4.68629 24 8C24 9.89833 23.2402 11.4629 21.7693 12.5151C20.3467 13.5326 18.3606 14 16 14V12C18.1394 12 19.6533 11.5697 20.6057 10.8884C21.5098 10.2417 22 9.30629 22 8C22 5.79086 20.2091 4 18 4C17.6196 4 17.2532 4.05283 16.9069 4.15093L16.2779 4.32913L15.8623 3.82442C14.9437 2.70867 13.555 2 12 2Z"
        fill="#C3D0E7"/>
  <path fill-rule="evenodd" clip-rule="evenodd"
        d="M11.5 12C9.39091 12 7.61844 13.4519 7.13216 15.4121L6.87877 16.4335L5.87161 16.1283C5.59699 16.0451 5.30467 16 5 16C3.34315 16 2 17.3431 2 19C2 20.6569 3.34315 22 5 22H16.5C18.433 22 20 20.433 20 18.5C20 16.567 18.433 15 16.5 15C16.4741 15 16.4483 15.0003 16.4225 15.0008L15.7956 15.0144L15.5103 14.456C14.7644 12.996 13.2477 12 11.5 12ZM5.48868 14.0236C6.46246 11.6625 8.7861 10 11.5 10C13.8118 10 15.8402 11.207 16.9918 13.0217C19.799 13.2704 22 15.6282 22 18.5C22 21.5376 19.5376 24 16.5 24H5C2.23858 24 0 21.7614 0 19C0 16.2386 2.23858 14 5 14C5.1647 14 5.32773 14.008 5.48868 14.0236Z"
        fill="#73BCFE"/>
</svg>
