<svg width="24" height="24" viewBox="0 0 24 24" fill="none" xmlns="http://www.w3.org/2000/svg">
  <path fill-rule="evenodd" clip-rule="evenodd"
        d="M10.9987 3.14159V0H12.9987V3.14159L14.4774 2.16545L15.5792 3.83455L12.9987 5.53809V10.2762L17.1534 7.90095L17.3532 4.83337L19.3564 4.97034L19.2433 6.70612L21.9896 5.13604L22.997 6.86382L20.2507 8.4339L21.8253 9.20484L20.9435 10.9912L18.1608 9.62872L14.0133 11.9999L18.1612 14.3713L20.9439 13.0088L21.8257 14.7952L20.2511 15.5661L22.9974 17.1362L21.99 18.864L19.2438 17.2939L19.3568 19.0297L17.3536 19.1666L17.1538 16.0991L12.9987 13.7235V18.4619L15.5792 20.1655L14.4774 21.8345L12.9987 20.8584V24H10.9987V20.8584L9.52004 21.8345L8.41818 20.1655L10.9987 18.4619V13.7234L6.84355 16.0989L6.64376 19.1665L4.64059 19.0295L4.75364 17.2937L2.00737 18.8638L1 17.136L3.74627 15.566L2.17169 14.795L3.05349 13.0087L5.83618 14.3711L9.98384 11.9999L5.83661 9.62886L3.05392 10.9913L2.17213 9.20498L3.74671 8.43403L1.00044 6.86396L2.0078 5.13618L4.75408 6.70626L4.64103 4.97048L6.6442 4.83351L6.84398 7.90108L10.9987 10.2764V5.53809L8.41818 3.83455L9.52004 2.16545L10.9987 3.14159Z"
        fill="#C3D0E7"/>
</svg>
