<svg width="25" height="24" viewBox="0 0 25 24" fill="none" xmlns="http://www.w3.org/2000/svg">
  <path fill-rule="evenodd" clip-rule="evenodd"
        d="M12.1189 12.7071L12.826 12H9.99756L6.70467 15.2929L4.99756 17H7.41177H8.99756L6.70467 19.2929L5.99756 20H8.82599L12.1189 16.7071L13.826 15H11.4118H9.82599L12.1189 12.7071Z"
        fill="#FFA115"/>
  <path fill-rule="evenodd" clip-rule="evenodd"
        d="M19.1189 16.7071L19.826 16H16.9976L13.7047 19.2929L11.9976 21H14.4118H15.9976L13.7047 23.2929L12.9976 24H15.826L19.1189 20.7071L20.826 19H18.4118H16.826L19.1189 16.7071Z"
        fill="#FFA115"/>
  <path fill-rule="evenodd" clip-rule="evenodd"
        d="M11.9976 2C9.81775 2 7.96129 3.39548 7.27772 5.34486L7.0218 6.0747L6.25105 6.0105C6.16769 6.00356 6.08315 6 5.99756 6C4.3407 6 2.99756 7.34315 2.99756 9C2.99756 10.6569 4.3407 12 5.99756 12H18.9976C21.2067 12 22.9976 10.2091 22.9976 8C22.9976 5.79086 21.2067 4 18.9976 4C18.383 4 17.8034 4.13791 17.2857 4.38352L16.5354 4.73946L16.0477 4.06732C15.1373 2.81266 13.6624 2 11.9976 2ZM5.66637 4.01079C6.78717 1.64105 9.19964 0 11.9976 0C14.0473 0 15.8911 0.881742 17.1702 2.28364C17.7471 2.09933 18.3614 2 18.9976 2C22.3113 2 24.9976 4.68629 24.9976 8C24.9976 11.3137 22.3113 14 18.9976 14H5.99756C3.23614 14 0.997559 11.7614 0.997559 9C0.997559 6.34986 3.05935 4.18127 5.66637 4.01079Z"
        fill="#73BCFE"/>
</svg>
